<svg width="17" height="17" viewBox="0 0 17 17" fill="none" xmlns="http://www.w3.org/2000/svg">
<path id="SF Symbol / plus" d="M0 8.5C0 9.00485 0.422424 9.41697 0.91697 9.41697H7.58303V16.083C7.58303 16.5776 7.99515 17 8.5 17C9.00485 17 9.42727 16.5776 9.42727 16.083V9.41697H16.083C16.5776 9.41697 17 9.00485 17 8.5C17 7.99515 16.5776 7.57273 16.083 7.57273H9.42727V0.91697C9.42727 0.422424 9.00485 0 8.5 0C7.99515 0 7.58303 0.422424 7.58303 0.91697V7.57273H0.91697C0.422424 7.57273 0 7.99515 0 8.5Z" fill="black"/>
</svg>
